<?xml version="1.0" encoding="UTF-8"?>
<svg xmlns="http://www.w3.org/2000/svg" viewBox="0 0 100 100" width="100" height="100" role="img" aria-label="MupiTech">
  <title>MupiTech</title>
  <defs>
    <linearGradient id="mupitech-favicon" x1="0" y1="0" x2="1" y2="1">
      <stop offset="0" stop-color="#0082C8"/>
      <stop offset="1" stop-color="#0C3A5C"/>
    </linearGradient>
  </defs>
  <rect x="4" y="4" width="92" height="92" rx="22" fill="url(#mupitech-favicon)"/>
  <rect x="32" y="15" width="36" height="52" rx="4" fill="#FFE72D"/>
  <polygon points="36,41 38,32 41,37 44,26 47,37 50,19 53,37 56,26 59,37 62,32 64,41" fill="#04182B"/>
  <circle cx="50" cy="53" r="11" fill="#04182B"/>
  <circle cx="46" cy="51" r="1.7" fill="#FFE72D"/>
  <circle cx="54" cy="51" r="1.7" fill="#FFE72D"/>
  <rect x="45.7" y="57" width="8.7" height="2" rx="1" fill="#FFE72D" transform="rotate(-12 50 58)"/>
  <rect x="47" y="67" width="6" height="10" fill="#FDED3A"/>
  <rect x="37" y="77" width="26" height="6" rx="3" fill="#FDED3A"/>
</svg>
